<?xml version="1.0" standalone="no"?>
<!DOCTYPE svg PUBLIC "-//W3C//DTD SVG 20010904//EN"
 "http://www.w3.org/TR/2001/REC-SVG-20010904/DTD/svg10.dtd">
<svg version="1.0" xmlns="http://www.w3.org/2000/svg"
 width="512.000000pt" height="384.000000pt" viewBox="0 0 512.000000 384.000000"
 preserveAspectRatio="xMidYMid meet">
<metadata>
Created by potrace 1.16, written by Peter Selinger 2001-2019
</metadata>
<g transform="translate(0.000000,384.000000) scale(0.100000,-0.100000)"
fill="#000000" stroke="none">
<path d="M4366 3602 c-134 -334 -285 -505 -501 -567 -84 -25 -312 -16 -500 19
-77 15 -147 29 -155 33 -21 9 -21 9 -65 17 -22 4 -87 20 -145 36 -201 56 -419
80 -714 80 -109 0 -226 -4 -260 -10 -33 -5 -100 -14 -149 -20 -48 -6 -129 -22
-180 -35 -50 -14 -102 -27 -114 -30 -139 -33 -434 -179 -575 -285 -164 -123
-305 -270 -388 -405 -46 -73 -111 -219 -133 -295 -19 -65 -22 -99 -21 -245 0
-186 16 -271 74 -405 15 -36 31 -76 35 -90 12 -40 110 -202 174 -287 58 -77
276 -327 429 -491 88 -95 340 -328 422 -390 44 -34 63 -42 97 -42 74 0 88 22
124 196 l32 152 53 6 c177 21 298 138 311 299 7 83 -9 128 -58 171 -54 45
-114 61 -234 59 -87 0 -136 -8 -243 -39 -22 -6 -22 -4 18 106 64 181 208 400
328 500 192 161 459 292 872 430 118 39 247 80 285 90 251 69 478 168 625 271
137 96 346 327 426 470 7 13 32 58 55 99 53 96 104 251 120 363 10 70 10 105
-1 175 -7 48 -15 92 -19 99 -3 7 -14 -8 -25 -35z m-2348 -2599 c54 -40 67 -69
67 -147 -1 -87 -36 -169 -93 -216 -38 -31 -107 -58 -119 -47 -3 4 11 87 32
186 20 99 34 184 31 190 -17 26 -108 2 -123 -32 -6 -12 -43 -169 -83 -350 -41
-180 -76 -327 -80 -327 -3 0 -13 38 -23 84 -12 59 -17 131 -17 249 l0 165 35
6 c31 6 34 9 25 26 -33 62 13 165 92 206 73 38 209 42 256 7z"/>
<path d="M2382 768 c-47 -16 -123 -87 -155 -145 -58 -107 -75 -260 -37 -337
11 -23 36 -52 57 -66 32 -22 48 -25 117 -25 94 0 165 27 234 90 39 35 62 39
62 11 0 -24 43 -68 84 -87 84 -38 193 -19 300 52 32 22 60 38 62 36 2 -1 -1
-22 -7 -45 -5 -24 -7 -47 -4 -53 10 -15 78 -10 102 6 25 18 31 35 73 235 28
135 33 147 65 177 44 41 102 47 110 11 2 -13 -15 -113 -38 -223 -30 -136 -40
-202 -33 -207 22 -15 75 -8 101 15 23 19 31 45 64 201 35 167 40 181 70 208
38 34 96 39 106 9 3 -10 -8 -82 -25 -160 -38 -177 -39 -223 -5 -256 50 -51
174 -18 250 67 48 53 34 70 -27 34 -25 -14 -56 -26 -70 -26 -52 0 -53 16 -13
201 32 149 36 177 26 210 -14 48 -44 69 -95 69 -46 0 -115 -37 -140 -75 -20
-30 -36 -33 -36 -6 0 11 -12 33 -26 50 -21 26 -33 31 -67 31 -48 0 -99 -27
-140 -73 l-29 -32 6 39 c7 50 -6 66 -52 66 -43 0 -118 -35 -132 -60 -14 -26
-2 -54 16 -39 26 21 27 -19 4 -138 -20 -101 -28 -121 -56 -153 -41 -45 -129
-89 -192 -96 -56 -6 -106 20 -123 64 -14 36 -5 164 17 225 21 61 81 127 116
127 40 0 54 -24 41 -71 -12 -46 -10 -49 33 -49 60 0 93 76 61 140 -16 33 -72
60 -122 60 -131 0 -256 -144 -286 -328 l-12 -74 -59 -39 c-75 -48 -150 -66
-201 -49 -38 12 -67 43 -67 70 0 8 37 38 81 65 168 104 234 234 161 316 -25
27 -36 33 -83 35 -30 2 -69 -2 -87 -8z m100 -85 c33 -30 15 -93 -48 -163 -41
-45 -122 -105 -131 -97 -8 8 17 118 38 167 24 55 45 79 84 96 38 17 35 17 57
-3z"/>
</g>
</svg>
